<?xml version="1.0" encoding="UTF-8"?>
<svg xmlns="http://www.w3.org/2000/svg"
     version="1.2"
     baseProfile="tiny"
     viewBox="0 0 512 512">

  <!-- Hintergrund (helles Beige) -->
  <rect x="0" y="0" width="512" height="512" fill="#f6efe2"/>

  <!-- Alles in dunkelblau -->
  <g fill="#0c2640" stroke="#0c2640" stroke-width="16" stroke-linecap="round">

    <!-- Steuerrad außen -->
    <circle cx="256" cy="320" r="90" fill="none"/>

    <!-- Nabe -->
    <circle cx="256" cy="320" r="18" fill="#0c2640"/>

    <!-- Speichen -->
    <line x1="256" y1="214" x2="256" y2="262"/>
    <line x1="256" y1="378" x2="256" y2="426"/>

    <line x1="150" y1="320" x2="198" y2="320"/>
    <line x1="314" y1="320" x2="362" y2="320"/>

    <line x1="190" y1="254" x2="220" y2="284"/>
    <line x1="292" y1="356" x2="322" y2="386"/>

    <line x1="190" y1="386" x2="220" y2="356"/>
    <line x1="292" y1="284" x2="322" y2="254"/>

    <!-- Griffe -->
    <circle cx="256" cy="198" r="12" fill="#0c2640" stroke="none"/>
    <circle cx="256" cy="442" r="12" fill="#0c2640" stroke="none"/>
    <circle cx="132" cy="320" r="12" fill="#0c2640" stroke="none"/>
    <circle cx="380" cy="320" r="12" fill="#0c2640" stroke="none"/>

    <circle cx="176" cy="240" r="12" fill="#0c2640" stroke="none"/>
    <circle cx="336" cy="240" r="12" fill="#0c2640" stroke="none"/>
    <circle cx="176" cy="400" r="12" fill="#0c2640" stroke="none"/>
    <circle cx="336" cy="400" r="12" fill="#0c2640" stroke="none"/>

  </g>

  <!-- JJR oben drüber -->
  <text x="256" y="150"
        text-anchor="middle"
        font-size="120"
        font-family="Georgia, 'Times New Roman', serif"
        fill="#0c2640">
    JJR
  </text>
</svg>